<?xml version="1.0" encoding="UTF-8"?>
<svg width="28px" height="60px" viewBox="0 0 28 60" version="1.1" xmlns="http://www.w3.org/2000/svg" xmlns:xlink="http://www.w3.org/1999/xlink">
    <!-- Generator: Sketch 44.1 (41455) - http://www.bohemiancoding.com/sketch -->
    <title>icon_driver_motor</title>
    <desc>Created with Sketch.</desc>
    <defs></defs>
    <g id="Page-1" stroke="none" stroke-width="1" fill="none" fill-rule="evenodd">
        <g id="Artboard-9" transform="translate(-206.000000, -56.000000)">
            <g id="icon_driver_motor" transform="translate(206.000000, 56.000000)">
                <path d="M7.90193807,41.9230769 L20.1730333,41.9230769 C21.2594125,43.7542387 21.1129439,46.6399027 19.7336275,50.5800689 C17.6646529,56.4903183 16.1406551,58.3227595 13.9397752,58.3227595 C11.7388953,58.3227595 8.92803643,51.7086741 7.90193807,48.9216351 C7.2178725,47.0636091 7.2178725,44.7307564 7.90193807,41.9230769 Z" id="Path-48" fill="#228DC9"></path>
                <polygon id="Path-50" fill="#616161" points="8.63227786 32.6923077 7.77777778 41.6350127 20.0253425 41.6350127 19.07345 32.6923077"></polygon>
                <path d="M11.6666667,5.19254294 L11.6666667,2.1306522 C12.559477,0.748150646 13.4392429,0.0384376292 14.3059643,0.00151314788 C15.1726858,-0.0354113335 16.0856516,0.603449419 17.0448616,1.9180954 L17.0448616,5.19254294 L11.6666667,5.19254294 Z" id="Path-57" fill="#000000"></path>
                <rect id="Rectangle-30" fill="#000000" x="9.72222222" y="48.0769231" width="8.55555556" height="11.557635" rx="4.27777778"></rect>
                <path d="M8.4020846,12.9424735 L6.48800242,12.9424735 C5.88117458,14.1073059 5.13470127,14.8299276 4.24858247,15.1103385 C2.91940427,15.5309548 0.613797702,15.4664304 0.304691822,14.8991724 C-0.0044140576,14.3319143 1.35526073,12.6219908 2.91656547,11.9739597 C3.9574353,11.541939 5.78594167,11.4356199 8.4020846,11.6550025 L8.4020846,12.9424735 Z" id="Path-54" fill="#000000"></path>
                <polygon id="Path-55" fill="#000000" points="6.68778892 15.5680857 1.3373164 17.3923514 1.71441537 18.4623373 6.68778892 16.9673367"></polygon>
                <path d="M27.7394927,12.9424735 L25.8254105,12.9424735 C25.2185827,14.1073059 24.4721094,14.8299276 23.5859906,15.1103385 C22.2568124,15.5309548 19.9512058,15.4664304 19.6420999,14.8991724 C19.332994,14.3319143 20.6926688,12.6219908 22.2539736,11.9739597 C23.2948434,11.541939 25.1233498,11.4356199 27.7394927,11.6550025 L27.7394927,12.9424735 Z" id="Path-54" fill="#000000" transform="translate(23.668704, 13.463301) scale(-1, 1) translate(-23.668704, -13.463301) "></path>
                <polygon id="Path-55" fill="#000000" transform="translate(23.987447, 17.015211) scale(-1, 1) translate(-23.987447, -17.015211) " points="26.6626836 15.5680857 21.3122111 17.3923514 21.6893101 18.4623373 26.6626836 16.9673367"></polygon>
                <path d="M8.08965481,19.0184345 L6.52034605,16.9956517 C5.94931158,12.3447975 6.1986083,9.2407619 7.26823619,7.68354475 C8.33786409,6.12632761 10.6105432,4.8471973 14.0862736,3.84615385 C17.5523031,4.92873847 19.8263523,6.13955602 20.9084214,7.47860651 C21.9904905,8.817657 22.3200524,12.1904893 21.897107,17.5971035 L20.3941367,19.0184345 L8.08965481,19.0184345 Z" id="Path-51" fill="#218DC9"></path>
                <path d="M8.63465618,32.8009725 C7.16320869,31.138704 6.36474935,29.047889 6.23927815,26.5285276 C6.11380695,24.0091663 6.68060338,21.448375 7.93966743,18.8461538 L20.3045159,18.8461538 C20.9206874,20.4325817 21.3143455,21.6683203 21.48549,22.5533695 C21.7261171,23.7977377 21.8464306,25.1227904 21.8464306,26.5285276 C21.8464306,29.4339979 20.8795028,31.5248129 18.9456472,32.8009725 L8.63465618,32.8009725 Z" id="Path-49" fill="#4CB2EB"></path>
                <path d="M8.16666667,13.5773784 C8.18033933,11.5711123 8.63043601,9.92175415 9.51695671,8.62930396 C10.4034774,7.33685377 11.8816212,6.25529091 13.9513882,5.38461538 C15.8532058,5.94465451 17.3165811,6.9489417 18.3415141,8.39747695 C19.3664471,9.8460122 19.826438,11.5142297 19.7214868,13.4021293 L8.16666667,13.5773784 Z" id="Path-56" fill="#D8D8D8"></path>
                <path d="M12.3206582,22.0398929 L8.16666667,17.9315497 L8.16666667,13.7044614 C9.85560985,12.8052438 11.6732245,12.3402019 13.6195106,12.3093358 C15.5657966,12.2784697 17.6033869,12.6823718 19.7322814,13.5210423 L19.7322814,17.9507736 L15.4446497,22.0514093 L12.3206582,22.0398929 Z" id="Path-52" fill="#000000"></path>
                <ellipse id="Oval-13" fill="#000000" cx="14.1944444" cy="36.7307692" rx="9.13888889" ry="7.5"></ellipse>
                <path d="M14.2391517,27.3083028 C12.1205151,27.2607028 9.77257002,30.0040584 9.72305617,32.9721571 C9.67354233,35.9402557 11.8362401,38.8105836 14.2389711,38.8645664 C16.6417022,38.9185493 18.7068309,36.09142 18.7554811,33.1750912 C18.8041313,30.2587624 16.3577882,27.3559028 14.2391517,27.3083028 Z" id="Path-47" fill="#0B6CA2"></path>
                <path d="M10.5860443,33.3460176 C11.9326977,31.9442672 13.2077152,31.2533163 14.4110967,31.2731649 C15.6144782,31.2930135 16.7514174,32.0237474 17.8219144,33.4653665 C17.7018184,31.383377 17.242629,30.0803028 16.444346,29.5561439 C15.2469215,28.7699056 13.7240509,28.4442285 11.9362547,29.6007961 C10.7443905,30.3718411 10.2943204,31.6202483 10.5860443,33.3460176 Z" id="Path-58" fill="#000000"></path>
                <path d="M1.01428596,16.6421209 C0.480528304,22.4890704 0.480528304,25.9839304 1.01428596,27.126701 C1.54804362,28.2694716 3.37095,30.7304932 6.48300509,34.5097658 C7.50030365,35.2522779 8.34549336,35.2148058 9.01857422,34.3973495 C9.69165509,33.5798931 9.47128026,32.659966 8.35744973,31.6375681 C5.99666389,28.3812366 4.63697257,26.287172 4.27837578,25.3553745 C3.91977898,24.4235769 3.83344138,21.5191591 4.01936298,16.6421209 L1.01428596,16.6421209 Z" id="Path-53" fill="#8F8F8F"></path>
                <path d="M27.1677103,16.6421209 C27.701468,22.4890704 27.701468,25.9839304 27.1677103,27.126701 C26.6339527,28.2694716 24.8110463,30.7304932 21.6989912,34.5097658 C20.6816927,35.2522779 19.836503,35.2148058 19.1634221,34.3973495 C18.4903412,33.5798931 18.7107161,32.659966 19.8245466,31.6375681 C22.1853324,28.3812366 23.5450237,26.287172 23.9036205,25.3553745 C24.2622173,24.4235769 24.3485549,21.5191591 24.1626333,16.6421209 L27.1677103,16.6421209 Z" id="Path-53" fill="#8F8F8F"></path>
                <ellipse id="Oval-14" fill="#000000" transform="translate(25.277778, 17.500000) scale(-1, 1) translate(-25.277778, -17.500000) " cx="25.2777778" cy="17.5" rx="2.33333333" ry="1.73076923"></ellipse>
                <ellipse id="Oval-14" fill="#000000" cx="2.72222222" cy="17.5" rx="2.33333333" ry="1.73076923"></ellipse>
            </g>
        </g>
    </g>
</svg>